<?xml-stylesheet type="text/css" href="f2_hint.css"?>
<!DOCTYPE svg PUBLIC "-//W3C//DTD SVG 1.1//EN" "http://www.w3.org/Graphics/SVG/1.1/DTD/svg11.dtd">
<!-- PDFTron PDFNet Generated! Version: 7.1.0.74195 -->
<svg id="svgRoot" version="1.1" baseProfile="Full" width="82px" height="82px" viewBox="0 0 82 82" xmlns="http://www.w3.org/2000/svg" xmlns:xlink="http://www.w3.org/1999/xlink" xmlns:cs="http://www.pdftron.com/pdf2svg" xml:space="preserve">
<defs>
</defs>
<style type="text/css">
<![CDATA[
.ps03 { stroke:#98B3FC;fill:none; }
.ps02 { stroke:none;fill:#4D4D4D;fill-rule:nonzero; }
.ps01 { stroke:none;fill-opacity:0;fill:#FFFFFF;fill-rule:nonzero; }
.ps00 { stroke:none;fill:none; }
.ps10 { stroke-width:0.05; }
.ps20 { 
letter-spacing:0px;word-spacing:0;font-family:fnt0;font-style:normal;font-weight:normal;font-size:12.947px; }
]]>
</style>
<clipPath id="clp1" clip-rule="nonzero">
<rect x="0" y="0" width="82" height="82"/>
</clipPath>
<g clip-path="url(#clp1)" transform="matrix(1 0 0 -1 -0 82)">
<g id="q1" class="">
<g id="q2" class="">
</g>
<g id="q3" class="">
<clipPath id="clp2" clip-rule="evenodd">
<path d="M6 82 L76 82 C79.314 82 82 79.314 82 76 L82 6 C82 2.6863 79.314 0 76 0 L6 0 C2.6863 0 0 2.6863 0 6 L0 76 C0 79.314 2.6863 82 6 82 Z"/>
</clipPath>
<g clip-path="url(#clp2)">
<clipPath id="clp3" clip-rule="nonzero">
<path d="M-456 -822 L1141 -822 L1141 1020 L-456 1020 Z"/>
</clipPath>
<g clip-path="url(#clp3)">
<path d="M-5 87 L87 87 L87 -5 L-5 -5 Z" class="ps01"/>
</g>
</g>
</g>
<g id="q4" class="">
<clipPath id="clp4" clip-rule="evenodd">
<path d="M59.079 47.891 C60.206 50.765 60.847 52.974 61.004 54.518 L61.105 55.51 C61.183 56.278 61.195 58.212 61.18 58.987 C61.169 59.504 61.111 60.007 61.004 60.496 L60.741 61.327 C60.567 61.879 60.313 62.402 59.988 62.88 L59.815 63.134 C59.557 63.514 59.199 63.816 58.782 64.008 C58.358 64.202 57.908 64.33 57.446 64.389 L56.957 64.451 C56.205 64.547 55.441 64.446 54.74 64.156 L54.575 64.088 C53.982 63.844 53.465 63.446 53.076 62.937 L53.021 62.865 C52.664 62.396 52.378 61.879 52.171 61.327 L52.126 61.209 C51.949 60.735 51.825 60.243 51.757 59.742 C51.69 59.239 51.656 58.733 51.656 58.226 L51.656 56.839 C51.656 55.653 50.694 54.691 49.508 54.691 C48.884 54.691 48.26 54.691 47.636 54.691 C47.215 54.691 46.795 54.691 46.374 54.691 C44.999 54.691 43.885 55.805 43.885 57.18 L43.885 57.18 L43.892 57.6 C43.907 58.524 43.948 59.449 44.016 60.371 L44.105 61.586 C44.177 62.572 44.329 63.55 44.561 64.511 L44.598 64.663 C44.804 65.521 45.126 66.346 45.555 67.117 L45.972 67.867 C46.124 68.141 46.295 68.404 46.483 68.655 L46.532 68.722 C46.688 68.928 46.849 69.131 47.017 69.328 C47.184 69.525 47.358 69.717 47.537 69.903 L47.752 70.127 C48.074 70.463 48.419 70.776 48.784 71.065 L48.921 71.174 C49.334 71.501 49.764 71.806 50.209 72.088 C50.653 72.37 51.119 72.617 51.602 72.826 L52.483 73.207 L53.178 73.392 C54.002 73.612 54.842 73.768 55.689 73.861 C56.535 73.953 57.389 73.944 58.233 73.834 L58.425 73.809 C59.396 73.682 60.346 73.433 61.254 73.067 L61.279 73.057 C62.204 72.685 63.078 72.197 63.881 71.606 L64.224 71.353 C65.016 70.77 65.747 70.108 66.405 69.377 L66.525 69.244 C67.103 68.603 67.592 67.888 67.98 67.117 L68.244 66.592 C68.458 66.168 68.638 65.728 68.783 65.276 L68.922 64.845 C68.975 64.68 69.027 64.515 69.079 64.35 L69.362 63.45 C69.442 63.195 69.511 62.937 69.57 62.676 L69.675 62.215 C69.778 61.762 69.845 61.302 69.878 60.838 C69.975 58.261 70 57.202 70 56.967 C70 56.732 69.975 55.807 69.926 54.193 C69.926 53.129 69.777 52.072 69.484 51.053 L69.448 50.926 C69.13 49.82 68.721 48.744 68.225 47.71 L54.03 18.103 C53.801 17.625 54.002 17.052 54.48 16.823 C54.61 16.761 54.752 16.728 54.895 16.728 L65.562 16.728 C67.972 16.728 69.926 14.775 69.926 12.364 C69.926 9.9539 67.972 8 65.562 8 L47.781 8 C45.371 8 43.417 9.9539 43.417 12.364 L43.417 13.693 C43.417 15.689 43.884 17.657 44.78 19.441 L59.079 47.891 Z"/>
</clipPath>
<g clip-path="url(#clp4)">
<clipPath id="clp5" clip-rule="nonzero">
<path d="M-456 -822 L1141 -822 L1141 1020 L-456 1020 Z"/>
</clipPath>
<g clip-path="url(#clp5)">
<path d="M38.417 78.924 L75 78.924 L75 3 L38.417 3 Z" class="ps02"/>
</g>
</g>
</g>
<g id="q5" class="">
<clipPath id="clp6" clip-rule="evenodd">
<path d="M20.856 44.22 L34.958 44.22 C36.96 44.22 38.583 42.598 38.583 40.598 C38.583 38.597 36.96 36.976 34.958 36.976 L20.856 36.976 C20.414 36.976 20.056 36.617 20.056 36.176 L20.056 12.024 C20.056 9.8018 18.252 8 16.028 8 C13.803 8 12 9.8018 12 12.024 L12 65.951 C12 66.223 12.013 66.491 12.04 66.756 L12 66.756 C12 70.757 15.246 74 19.25 74 L36.569 74 C38.571 74 40.194 72.378 40.194 70.378 C40.194 68.378 38.571 66.756 36.569 66.756 L21.656 66.756 C20.772 66.756 20.056 66.04 20.056 65.156 L20.056 45.02 C20.056 44.578 20.414 44.22 20.856 44.22 Z"/>
</clipPath>
<g clip-path="url(#clp6)">
<clipPath id="clp7" clip-rule="nonzero">
<path d="M-456 -822 L1141 -822 L1141 1020 L-456 1020 Z"/>
</clipPath>
<g clip-path="url(#clp7)">
<path d="M7 79 L45.194 79 L45.194 3 L7 3 Z" class="ps02"/>
</g>
</g>
</g>
</g>
<g id="q6" class="">
<g id="xfrm7" transform="matrix(82 0 0 82 0 0)">
<clipPath id="clp8" clip-rule="nonzero">
<rect x="0" y="0" width="100" height="100"/>
</clipPath>
<g id="frm8" transform="matrix(0.01 0 0 0.01 0 0)" clip-path="url(#clp8)">
<text transform="matrix(1 0 0 -1 0 43.5267)"><tspan x="0,9.3475,18.695,28.043,31.642,38.84,46.038,49.638,53.237,57.548,64.746,71.945,75.544,82.017,89.216" y="-0" class="ps03 ps10 ps20"></tspan>
</text>
</g>
</g>
</g>
</g>
</svg>
