<?xml-stylesheet type="text/css" href="flag.css"?>
<!DOCTYPE svg PUBLIC "-//W3C//DTD SVG 1.1//EN" "http://www.w3.org/Graphics/SVG/1.1/DTD/svg11.dtd">
<!-- PDFTron PDFNet Generated! Version: 7.1.0.74195 -->
<svg id="svgRoot" version="1.1" baseProfile="Full" width="82px" height="82px" viewBox="0 0 82 82" xmlns="http://www.w3.org/2000/svg" xmlns:xlink="http://www.w3.org/1999/xlink" xmlns:cs="http://www.pdftron.com/pdf2svg" xml:space="preserve">
<defs>
</defs>
<style type="text/css">
<![CDATA[
.ps02 { stroke:#98B3FC;fill:none; }
.ps01 { stroke:none;fill:#4D4D4D;fill-rule:nonzero; }
.ps00 { stroke:none;fill:none; }
.ps10 { stroke-width:0.05; }
.ps20 { 
letter-spacing:0px;word-spacing:0;font-family:fnt0;font-style:normal;font-weight:normal;font-size:12.947px; }
]]>
</style>
<clipPath id="clp1" clip-rule="nonzero">
<rect x="0" y="0" width="82" height="82"/>
</clipPath>
<g clip-path="url(#clp1)" transform="matrix(1 0 0 -1 -0 82)">
<g id="q1" class="">
<g id="q2" class="">
</g>
<g id="q3" class="">
<clipPath id="clp2" clip-rule="evenodd">
<path d="M1.4138 73.517 L14.986 73.517 C15.767 73.517 16.4 72.884 16.4 72.103 L16.4 58.672 C16.4 57.892 15.767 57.259 14.986 57.259 L1.4138 57.259 C0.63298 57.259 0 57.892 0 58.672 L0 72.103 C0 72.884 0.63298 73.517 1.4138 73.517 ZM34.214 73.517 L47.786 73.517 C48.567 73.517 49.2 72.884 49.2 72.103 L49.2 58.672 C49.2 57.892 48.567 57.259 47.786 57.259 L34.214 57.259 C33.433 57.259 32.8 57.892 32.8 58.672 L32.8 72.103 C32.8 72.884 33.433 73.517 34.214 73.517 ZM67.014 73.517 L80.586 73.517 C81.367 73.517 82 72.884 82 72.103 L82 58.672 C82 57.892 81.367 57.259 80.586 57.259 L67.014 57.259 C66.233 57.259 65.6 57.892 65.6 58.672 L65.6 72.103 C65.6 72.884 66.233 73.517 67.014 73.517 ZM17.814 57.259 L31.386 57.259 C32.167 57.259 32.8 56.626 32.8 55.845 L32.8 42.414 C32.8 41.633 32.167 41 31.386 41 L17.814 41 C17.033 41 16.4 41.633 16.4 42.414 L16.4 55.845 C16.4 56.626 17.033 57.259 17.814 57.259 ZM50.614 57.259 L64.186 57.259 C64.967 57.259 65.6 56.626 65.6 55.845 L65.6 42.414 C65.6 41.633 64.967 41 64.186 41 L50.614 41 C49.833 41 49.2 41.633 49.2 42.414 L49.2 55.845 C49.2 56.626 49.833 57.259 50.614 57.259 ZM17.814 24.741 L31.386 24.741 C32.167 24.741 32.8 24.108 32.8 23.328 L32.8 9.8966 C32.8 9.1157 32.167 8.4828 31.386 8.4828 L17.814 8.4828 C17.033 8.4828 16.4 9.1157 16.4 9.8966 L16.4 23.328 C16.4 24.108 17.033 24.741 17.814 24.741 ZM50.614 24.741 L64.186 24.741 C64.967 24.741 65.6 24.108 65.6 23.328 L65.6 9.8966 C65.6 9.1157 64.967 8.4828 64.186 8.4828 L50.614 8.4828 C49.833 8.4828 49.2 9.1157 49.2 9.8966 L49.2 23.328 C49.2 24.108 49.833 24.741 50.614 24.741 ZM1.4138 41 L14.986 41 C15.767 41 16.4 40.367 16.4 39.586 L16.4 26.155 C16.4 25.374 15.767 24.741 14.986 24.741 L1.4138 24.741 C0.63298 24.741 0 25.374 0 26.155 L0 39.586 C0 40.367 0.63298 41 1.4138 41 ZM34.214 41 L47.786 41 C48.567 41 49.2 40.367 49.2 39.586 L49.2 26.155 C49.2 25.374 48.567 24.741 47.786 24.741 L34.214 24.741 C33.433 24.741 32.8 25.374 32.8 26.155 L32.8 39.586 C32.8 40.367 33.433 41 34.214 41 ZM67.014 41 L80.586 41 C81.367 41 82 40.367 82 39.586 L82 26.155 C82 25.374 81.367 24.741 80.586 24.741 L67.014 24.741 C66.233 24.741 65.6 25.374 65.6 26.155 L65.6 39.586 C65.6 40.367 66.233 41 67.014 41 Z"/>
</clipPath>
<g clip-path="url(#clp2)">
<clipPath id="clp3" clip-rule="nonzero">
<path d="M0 0 L82 0 L82 82 L0 82 Z"/>
</clipPath>
<g clip-path="url(#clp3)">
<path d="M-5 78.517 L87 78.517 L87 3.4828 L-5 3.4828 Z" class="ps01"/>
</g>
</g>
</g>
</g>
<g id="q4" class="">
<g id="xfrm5" transform="matrix(82 0 0 82 0 0)">
<clipPath id="clp4" clip-rule="nonzero">
<rect x="0" y="0" width="100" height="100"/>
</clipPath>
<g id="frm6" transform="matrix(0.01 0 0 0.01 0 0)" clip-path="url(#clp4)">
<text transform="matrix(1 0 0 -1 0 43.5267)"><tspan x="0,9.3475,18.695,28.043,31.642,38.84,46.038,49.638,53.237,57.548,64.746,71.945,75.544,82.017,89.216" y="-0" class="ps02 ps10 ps20"></tspan>
</text>
</g>
</g>
</g>
</g>
</svg>
