<?xml-stylesheet type="text/css" href="right.css"?>
<!DOCTYPE svg PUBLIC "-//W3C//DTD SVG 1.1//EN" "http://www.w3.org/Graphics/SVG/1.1/DTD/svg11.dtd">
<!-- PDFTron PDFNet Generated! Version: 7.1.0.74195 -->
<svg id="svgRoot" version="1.1" baseProfile="Full" width="82px" height="82px" viewBox="0 0 82 82" xmlns="http://www.w3.org/2000/svg" xmlns:xlink="http://www.w3.org/1999/xlink" xmlns:cs="http://www.pdftron.com/pdf2svg" xml:space="preserve">
<defs>
</defs>
<style type="text/css">
<![CDATA[
.ps03 { stroke:#98B3FC;fill:none; }
.ps01 { stroke:none;fill:none }
.ps02 { stroke:none;fill:#4D4D4D;fill-rule:nonzero; }
.ps00 { stroke:none;fill:none; }
.ps10 { stroke-width:0.05; }
.ps20 { 
letter-spacing:0px;word-spacing:0;font-family:fnt0;font-style:normal;font-weight:normal;font-size:12.947px; }
]]>
</style>
<clipPath id="clp1" clip-rule="nonzero">
<rect x="0" y="0" width="82" height="82"/>
</clipPath>
<g clip-path="url(#clp1)" transform="matrix(1 0 0 -1 -0 82)">
<g id="q1" class="">
<g id="q2" class="">
</g>
<g id="q3" class="">
<clipPath id="clp2" clip-rule="evenodd">
<path d="M6 82 L76 82 C79.314 82 82 79.314 82 76 L82 6 C82 2.6863 79.314 0 76 0 L6 0 C2.6863 0 0 2.6863 0 6 L0 76 C0 79.314 2.6863 82 6 82 Z"/>
</clipPath>
<g clip-path="url(#clp2)">
<clipPath id="clp3" clip-rule="nonzero">
<path d="M0 0 L82 0 L82 82 L0 82 Z"/>
</clipPath>
<g clip-path="url(#clp3)">
<path d="M-5 87 L87 87 L87 -5 L-5 -5 Z" class="ps01"/>
</g>
</g>
</g>
<g id="q4" class="">
<clipPath id="clp4" clip-rule="evenodd">
<path d="M69.5 52.604 C69.5 51.287 68.718 49.971 67.153 48.655 L67.132 48.655 L67.153 48.636 L49.346 31.883 C47.682 30.317 45.075 30.317 43.411 31.883 C43.361 31.93 43.312 31.978 43.265 32.028 C41.792 33.57 41.857 36.005 43.411 37.467 L54.567 47.963 C54.728 48.115 54.736 48.368 54.584 48.529 C54.509 48.609 54.403 48.655 54.293 48.655 L23.334 48.655 C22.45 48.655 21.734 47.938 21.734 47.055 L21.734 12.081 C21.734 10.103 20.119 8.5 18.126 8.5 C16.133 8.5 14.518 10.103 14.518 12.081 L14.518 52.228 C14.506 52.351 14.5 52.477 14.5 52.604 C14.5 54.784 16.281 56.552 18.479 56.552 L54.294 56.552 C54.515 56.552 54.694 56.731 54.694 56.952 C54.694 57.063 54.649 57.168 54.569 57.244 L43.411 67.741 C43.361 67.788 43.312 67.837 43.265 67.887 C41.792 69.429 41.857 71.864 43.411 73.326 C45.075 74.891 47.682 74.891 49.346 73.326 L67.153 56.573 L67.131 56.552 L67.153 56.552 C68.718 55.236 69.5 53.92 69.5 52.604 Z"/>
</clipPath>
<g clip-path="url(#clp4)">
<clipPath id="clp5" clip-rule="nonzero">
<path d="M0 0 L82 0 L82 82 L0 82 Z"/>
</clipPath>
<g clip-path="url(#clp5)">
<path d="M9.5 3.5 L9.5 79.5 L74.5 79.5 L74.5 3.5 Z" class="ps02"/>
</g>
</g>
</g>
</g>
<g id="q5" class="">
<g id="xfrm6" transform="matrix(82 0 0 82 0 0)">
<clipPath id="clp6" clip-rule="nonzero">
<rect x="0" y="0" width="100" height="100"/>
</clipPath>
<g id="frm7" transform="matrix(0.01 0 0 0.01 0 0)" clip-path="url(#clp6)">
<text transform="matrix(1 0 0 -1 0 43.5267)"><tspan x="0,9.3475,18.695,28.043,31.642,38.84,46.038,49.638,53.237,57.548,64.746,71.945,75.544,82.017,89.216" y="-0" class="ps03 ps10 ps20"></tspan>
</text>
</g>
</g>
</g>
</g>
</svg>
