<?xml-stylesheet type="text/css" href="star.css"?>
<!DOCTYPE svg PUBLIC "-//W3C//DTD SVG 1.1//EN" "http://www.w3.org/Graphics/SVG/1.1/DTD/svg11.dtd">
<!-- PDFTron PDFNet Generated! Version: 7.1.0.74195 -->
<svg id="svgRoot" version="1.1" baseProfile="Full" width="82px" height="82px" viewBox="0 0 82 82" xmlns="http://www.w3.org/2000/svg" xmlns:xlink="http://www.w3.org/1999/xlink" xmlns:cs="http://www.pdftron.com/pdf2svg" xml:space="preserve">
<defs>
</defs>
<style type="text/css">
<![CDATA[
.ps01 { stroke:#98B3FC;fill:none; }
.ps00 { stroke:none;fill:none; }
.ps10 { stroke-width:0.05; }
.ps20 { 
letter-spacing:0px;word-spacing:0;font-family:fnt0;font-style:normal;font-weight:normal;font-size:12.947px; }
]]>
</style>
<clipPath id="clp1" clip-rule="nonzero">
<rect x="0" y="0" width="82" height="82"/>
</clipPath>
<g clip-path="url(#clp1)" transform="matrix(1 0 0 -1 -0 82)">
<g id="q1" class="">
<g id="q2" class="">
</g>
<g id="q3" class="">
<clipPath id="clp2" clip-rule="evenodd">
<path d="M57.243 29.555 L65.818 2.949 C65.87 2.7874 65.782 2.6141 65.62 2.562 C65.526 2.5319 65.424 2.5483 65.345 2.6061 L42.81 19.021 C41.731 19.807 40.269 19.807 39.19 19.021 L16.655 2.6061 C16.518 2.5062 16.326 2.5364 16.226 2.6736 C16.168 2.7531 16.151 2.8555 16.182 2.949 L24.757 29.555 C25.165 30.819 24.714 32.202 23.641 32.984 L0.76336 49.649 C0.62609 49.749 0.59587 49.941 0.69586 50.078 C0.75374 50.158 0.84611 50.205 0.94441 50.205 L28.424 50.205 C29.732 50.205 30.896 51.031 31.327 52.266 L40.71 79.119 C40.766 79.279 40.941 79.364 41.101 79.308 C41.19 79.277 41.259 79.208 41.29 79.119 L50.673 52.266 C51.104 51.031 52.268 50.205 53.576 50.205 L81.056 50.205 C81.225 50.205 81.363 50.067 81.363 49.897 C81.363 49.799 81.316 49.707 81.237 49.649 L58.359 32.984 C57.286 32.202 56.835 30.819 57.243 29.555 Z"/>
</clipPath>
<g clip-path="url(#clp2)">
<clipPath id="clp3" clip-rule="nonzero">
<path d="M0 0 L82 0 L82 82 L0 82 Z"/>
</clipPath>
<g clip-path="url(#clp3)">
<g id="q4" class="ps00">
<g id="xfrm5" transform="matrix(0 -1 -1 0 82.71609 80.6288)">
<defs>
<radialGradient id="RAD_SHAD_0" cx="41.697" cy="41.019" r="77.9" fx="41.697" fy="41.019" gradientUnits="userSpaceOnUse">
<stop offset="0" stop-color="#FFEA60"/>
<stop offset="0.1" stop-color="#FFE556"/>
<stop offset="0.2" stop-color="#FFE14D"/>
<stop offset="0.3" stop-color="#FFDD43"/>
<stop offset="0.4" stop-color="#FFD93A"/>
<stop offset="0.5" stop-color="#FFD530"/>
<stop offset="0.6" stop-color="#FFD126"/>
<stop offset="0.7" stop-color="#FFCD1C"/>
<stop offset="0.8" stop-color="#FFC913"/>
<stop offset="0.9" stop-color="#FFC40A"/>
<stop offset="1" stop-color="#FFC000"/>
</radialGradient>
</defs>
<circle fill="url(#RAD_SHAD_0)" stroke="none" cx="41.697" cy="41.019" r="115.97"/>
</g>
</g>
</g>
</g>
</g>
</g>
<g id="q6" class="">
<g id="xfrm7" transform="matrix(82 0 0 82 0 0)">
<clipPath id="clp4" clip-rule="nonzero">
<rect x="0" y="0" width="100" height="100"/>
</clipPath>
<g id="frm8" transform="matrix(0.01 0 0 0.01 0 0)" clip-path="url(#clp4)">
<text transform="matrix(1 0 0 -1 0 43.5267)"><tspan x="0,9.3475,18.695,28.043,31.642,38.84,46.038,49.638,53.237,57.548,64.746,71.945,75.544,82.017,89.216" y="-0" class="ps01 ps10 ps20"></tspan>
</text>
</g>
</g>
</g>
</g>
</svg>
