<?xml-stylesheet type="text/css" href="arrow.css"?>
<!DOCTYPE svg PUBLIC "-//W3C//DTD SVG 1.1//EN" "http://www.w3.org/Graphics/SVG/1.1/DTD/svg11.dtd">
<!-- PDFTron PDFNet Generated! Version: 7.1.0.74195 -->
<svg id="svgRoot" version="1.1" baseProfile="Full" width="82px" height="82px" viewBox="0 0 82 82" xmlns="http://www.w3.org/2000/svg" xmlns:xlink="http://www.w3.org/1999/xlink" xmlns:cs="http://www.pdftron.com/pdf2svg" xml:space="preserve">
<defs>
</defs>
<style type="text/css">
<![CDATA[
.ps02 { stroke:#98B3FC;fill:none; }
.ps01 { stroke:none;fill:#FEC107;fill-rule:nonzero; }
.ps00 { stroke:none;fill:none; }
.ps10 { stroke-width:0.05; }
.ps20 { 
letter-spacing:0px;word-spacing:0;font-family:fnt0;font-style:normal;font-weight:normal;font-size:12.947px; }
]]>
</style>
<clipPath id="clp1" clip-rule="nonzero">
<rect x="0" y="0" width="82" height="82"/>
</clipPath>
<g clip-path="url(#clp1)" transform="matrix(1 0 0 -1 -0 82)">
<g id="q1" class="">
<g id="q2" class="">
</g>
<g id="q3" class="">
<clipPath id="clp2" clip-rule="evenodd">
<path d="M82 70.687 L82 43.171 C82 43 81.922 42.839 81.789 42.732 L41.351 10.39 C41.146 10.226 40.854 10.226 40.649 10.39 L0.21084 42.732 C0.07758 42.839 0 43 0 43.171 L0 70.687 C0 70.997 0.25146 71.248 0.56164 71.248 C0.69362 71.248 0.82137 71.202 0.9225 71.117 L40.278 38.119 C40.696 37.769 41.304 37.769 41.722 38.119 L81.078 71.117 C81.315 71.316 81.669 71.285 81.869 71.047 C81.954 70.946 82 70.819 82 70.687 Z"/>
</clipPath>
<g clip-path="url(#clp2)">
<clipPath id="clp3" clip-rule="nonzero">
<path d="M0 0 L82 0 L82 82 L0 82 Z"/>
</clipPath>
<g clip-path="url(#clp3)">
<path d="M87 76.248 L87 5.2671 L-5 5.2671 L-5 76.248 Z" class="ps01"/>
</g>
</g>
</g>
</g>
<g id="q4" class="">
<g id="xfrm5" transform="matrix(82 0 0 82 0 0)">
<clipPath id="clp4" clip-rule="nonzero">
<rect x="0" y="0" width="100" height="100"/>
</clipPath>
<g id="frm6" transform="matrix(0.01 0 0 0.01 0 0)" clip-path="url(#clp4)">
<text transform="matrix(1 0 0 -1 0 43.5267)"><tspan x="0,9.3475,18.695,28.043,31.642,38.84,46.038,49.638,53.237,57.548,64.746,71.945,75.544,82.017,89.216" y="-0" class="ps02 ps10 ps20"></tspan>
</text>
</g>
</g>
</g>
</g>
</svg>
