<?xml-stylesheet type="text/css" href="empty_color.css"?>
<!DOCTYPE svg PUBLIC "-//W3C//DTD SVG 1.1//EN" "http://www.w3.org/Graphics/SVG/1.1/DTD/svg11.dtd">
<!-- PDFTron PDFNet Generated! Version: 7.1.0.74195 -->
<svg id="svgRoot" version="1.1" baseProfile="Full" width="82px" height="82px" viewBox="0 0 82 82" xmlns="http://www.w3.org/2000/svg" xmlns:xlink="http://www.w3.org/1999/xlink" xmlns:cs="http://www.pdftron.com/pdf2svg" xml:space="preserve">
<defs>
</defs>
<style type="text/css">
<![CDATA[
.ps01 { stroke:#98B3FC;fill:none; }
.ps00 { stroke:none;fill:none; }
.ps10 { stroke-width:0.05; }
.ps20 { 
letter-spacing:0px;word-spacing:0;font-family:fnt0;font-style:normal;font-weight:normal;font-size:12.947px; }
]]>
</style>
<clipPath id="clp1" clip-rule="nonzero">
<rect x="0" y="0" width="82" height="82"/>
</clipPath>
<g clip-path="url(#clp1)" transform="matrix(1 0 0 -1 -0 82)">
<g id="q1" class="">
<g id="q2" class="">
</g>
<g id="q3" class="">
<clipPath id="clp2" clip-rule="evenodd">
<path d="M6 82 L76 82 C79.314 82 82 79.314 82 76 L82 6 C82 2.6863 79.314 0 76 0 L6 0 C2.6863 0 0 2.6863 0 6 L0 76 C0 79.314 2.6863 82 6 82 Z"/>
</clipPath>
<g clip-path="url(#clp2)">
<clipPath id="clp3" clip-rule="nonzero">
<path d="M-379 -596 L899 -596 L899 1246 L-379 1246 Z"/>
</clipPath>
<g clip-path="url(#clp3)">
<g id="q4" class="ps00">
<g id="xfrm5" transform="matrix(0 -1 -1 0 82 82)">
<defs>
<radialGradient id="RAD_SHAD_0" cx="41" cy="41" r="98.864" fx="41" fy="41" gradientUnits="userSpaceOnUse">
<stop offset="0" stop-color="#ECECEC"/>
<stop offset="0.1" stop-color="#E7E7E7"/>
<stop offset="0.2" stop-color="#E3E3E3"/>
<stop offset="0.3" stop-color="#DFDFDF"/>
<stop offset="0.4" stop-color="#DBDBDB"/>
<stop offset="0.5" stop-color="#D7D7D7"/>
<stop offset="0.6" stop-color="#D2D2D2"/>
<stop offset="0.7" stop-color="#CECECE"/>
<stop offset="0.8" stop-color="#CACACA"/>
<stop offset="0.9" stop-color="#C6C6C6"/>
<stop offset="1" stop-color="#C2C2C2"/>
</radialGradient>
</defs>
<circle fill="url(#RAD_SHAD_0)" stroke="none" cx="41" cy="41" r="115.97"/>
</g>
</g>
</g>
</g>
</g>
</g>
<g id="q6" class="">
<g id="xfrm7" transform="matrix(82 0 0 82 0 0)">
<clipPath id="clp4" clip-rule="nonzero">
<rect x="0" y="0" width="100" height="100"/>
</clipPath>
<g id="frm8" transform="matrix(0.01 0 0 0.01 0 0)" clip-path="url(#clp4)">
<text transform="matrix(1 0 0 -1 0 43.5267)"><tspan x="0,9.3475,18.695,28.043,31.642,38.84,46.038,49.638,53.237,57.548,64.746,71.945,75.544,82.017,89.216" y="-0" class="ps01 ps10 ps20"></tspan>
</text>
</g>
</g>
</g>
</g>
</svg>
